<svg xmlns="http://www.w3.org/2000/svg" width="414" height="120" fill="none" viewBox="0 0 414 120"><rect width="413" height="119" x=".5" y=".5" fill="#fff"/><rect width="413" height="119" x=".5" y=".5" stroke="#D7DADE"/><rect width="68" height="8" x="16" y="16" fill="#D7DADE"/><rect width="119.333" height="8" x="16" y="32" fill="#D7DADE"/><rect width="119.333" height="8" x="16" y="48" fill="#D7DADE"/><rect width="119.333" height="8" x="16" y="64" fill="#D7DADE"/><rect width="119.333" height="8" x="16" y="80" fill="#D7DADE"/><rect width="119.333" height="8" x="16" y="96" fill="#D7DADE"/><rect width="68" height="8" x="147.333" y="16" fill="#D7DADE"/><rect width="119.333" height="8" x="147.333" y="32" fill="#D7DADE"/><rect width="119.333" height="8" x="147.333" y="48" fill="#D7DADE"/><rect width="119.333" height="8" x="147.333" y="64" fill="#D7DADE"/><rect width="119.333" height="8" x="147.333" y="80" fill="#D7DADE"/><rect width="119.333" height="8" x="147.333" y="96" fill="#D7DADE"/><rect width="68" height="8" x="278.667" y="16" fill="#D7DADE"/><rect width="119.333" height="8" x="278.667" y="32" fill="#D7DADE"/><rect width="119.333" height="8" x="278.667" y="48" fill="#D7DADE"/><rect width="119.333" height="8" x="278.667" y="64" fill="#D7DADE"/><rect width="119.333" height="8" x="278.667" y="80" fill="#D7DADE"/><rect width="119.333" height="8" x="278.667" y="96" fill="#D7DADE"/></svg>